<?xml version="1.0" standalone="no"?>
<!DOCTYPE svg PUBLIC "-//W3C//DTD SVG 1.1//EN" "http://www.w3.org/Graphics/SVG/1.1/DTD/svg11.dtd" >
<svg>
<metadata>
Created by FontForge 20090622 at Wed Mar 20 05:52:29 2019
 By deploy user
</metadata>
<defs>
<font id="Toonish" horiz-adv-x="572" >
  <font-face 
    font-family="Toonish"
    font-weight="400"
    font-stretch="normal"
    units-per-em="1000"
    panose-1="0 0 0 0 0 0 0 0 0 0"
    ascent="750"
    descent="-250"
    x-height="760"
    cap-height="765"
    bbox="-258 -243 790 875"
    underline-thickness="50"
    underline-position="-50"
    unicode-range="U+0020-U+2044"
  />
<missing-glyph horiz-adv-x="164" 
 />
    <glyph glyph-name=".notdef" horiz-adv-x="164" 
 />
    <glyph glyph-name=".null" horiz-adv-x="0" 
 />
    <glyph glyph-name="nonmarkingreturn" horiz-adv-x="164" 
 />
    <glyph glyph-name="space" unicode=" " horiz-adv-x="164" 
 />
    <glyph glyph-name="space" unicode="&#xa0;" horiz-adv-x="164" 
 />
    <glyph glyph-name="E" unicode="E" horiz-adv-x="524" 
d="M18 751l461 17v-180l-262 -20l12 -86l182 8l11 -184l-177 -13l6 -99l258 4l2 -196l-478 -9l-15 758v0z" />
    <glyph glyph-name="F" unicode="F" horiz-adv-x="496" 
d="M259 -3l-225 -6l-16 770l464 10l4 -176l-259 -18l4 -94l188 10l12 -184l-188 -13l16 -299v0z" />
    <glyph glyph-name="ydieresis" unicode="&#xff;" horiz-adv-x="833" 
 />
    <glyph glyph-name="G" unicode="G" horiz-adv-x="552" 
d="M322 556q-17 24 -35 28.5t-35 -4t-31 -26.5t-22 -39q-6 -17 -11.5 -54.5t-5.5 -82t8 -87.5t29 -71q19 -25 36.5 -35t33.5 -9t29 10t22 21t13.5 25t3.5 23l-82 4l6 166h251q6 -36 8.5 -77.5t-0.5 -84t-13.5 -83.5t-30.5 -76.5t-52 -63t-78 -42.5q-64 -21 -123.5 -10
t-107.5 49t-81 101t-43 144q-11 82 -4 158t32.5 139t69.5 110t107 71q40 15 74.5 16t62.5 -7.5t50.5 -23.5t40.5 -33q40 -42 66 -106z" />
    <glyph glyph-name="H" unicode="H" horiz-adv-x="564" 
d="M12 751l209 16l-3 -303l126 5l-3 279l208 13l-8 -755l-187 -10l-2 301l-138 -10l4 -294l-195 -4l-11 762v0z" />
    <glyph glyph-name="I" unicode="I" horiz-adv-x="270" 
d="M41 759l198 6l-9 -772l-177 3l-12 763v0z" />
    <glyph glyph-name="J" unicode="J" horiz-adv-x="508" 
d="M315 769l172 -11l6 -444q1 -97 -25 -171q-11 -32 -29.5 -61t-47 -50.5t-68 -31.5t-92.5 -4q-51 6 -87.5 24t-61.5 43.5t-40 55.5t-22 61q-18 72 -7 161l174 -16q-4 -40 1 -71q2 -13 6.5 -25.5t12 -22.5t18.5 -16t27 -6q22 -3 38 16q13 16 23.5 58t6.5 126z" />
    <glyph glyph-name="K" unicode="K" horiz-adv-x="568" 
d="M26 776l179 -15l-9 -234l201 271l150 -103l-182 -243l202 -399l-172 -60l-156 327l-34 -42l-6 -293l-185 -7l12 798v0z" />
    <glyph glyph-name="L" unicode="L" horiz-adv-x="479" 
d="M18 764l206 -10l15 -553l237 6l-2 -208l-432 -8l-24 773v0z" />
    <glyph glyph-name="M" unicode="M" horiz-adv-x="679" 
d="M10 0l62 773l199 -21l63 -324l69 329l182 10l91 -762l-195 -22l-19 375l-57 -231l-132 -15l-65 245l-9 -357h-189v0z" />
    <glyph glyph-name="N" unicode="N" 
d="M46 -19l-40 767l224 19l150 -428l-17 424l175 1l24 -756l-217 -22l-144 385l26 -388l-181 -2v0z" />
    <glyph glyph-name="O" unicode="O" horiz-adv-x="543" 
d="M522 465q13 -82 7 -149.5t-24.5 -121t-46.5 -93t-59 -66t-61.5 -39.5t-54.5 -13h-17q-31 0 -64 11q-38 11 -76 35.5t-68 72t-47.5 121t-13.5 181.5q3 70 15.5 123.5t31 92.5t41.5 65t47 43q55 39 123 42h11q66 0 122 -44t91 -119q11 -23 18 -43t11.5 -35t6.5 -24.5
l2 -9.5q2 -8 3 -15t2 -15zM369 372q2 52 -4.5 88t-18 59t-26 35t-28.5 17q-12 6 -24 6q-4 0 -7 -1q-13 0 -31.5 -14t-34.5 -42.5t-24.5 -72.5t-0.5 -104v-6.5t1 -6.5q1 -8 3 -17q2 -8 4 -17.5t7 -20.5q14 -36 35 -58t46 -22h4q26 1 47 20q18 16 33.5 52t18.5 105z" />
    <glyph glyph-name="P" unicode="P" horiz-adv-x="519" 
d="M514 589q3 -17 3.5 -42.5t-6.5 -54t-24.5 -57.5t-51 -53t-86.5 -41t-130 -20l10 -325l-203 -6l-15 763l103 6q45 2 97.5 3.5t100.5 1.5q47 0 83 -18t61 -44.5t39.5 -57t18.5 -55.5zM205 486q70 0 103.5 15.5t42 35t-0.5 37.5t-24 21q-14 4 -36.5 4t-42.5 -2
q-25 -2 -50 -5z" />
    <glyph glyph-name="Q" unicode="Q" 
d="M443 -32l-47 56q-26 -21 -50.5 -31t-44.5 -15q-23 -5 -43 -4l-11 1q-64 2 -116.5 48.5t-83.5 122.5q-20 47 -26.5 80t-6.5 34q-2 8 -3 15.5t-1 15.5q-10 82 -1 149.5t29 120.5t48.5 92t59.5 64t61 37t53 11l17 -1q32 -1 62 -13q36 -12 72 -38.5t63.5 -75.5t42 -123.5
t6.5 -182.5q-7 -89 -29 -151l80 -86zM269 179l-56 68l123 104l33 -35q8 41 3 95v12q0 8 -2 18q-3 16 -9 39q-13 37 -33.5 60t-43.5 24h-5q-26 0 -47 -18q-18 -16 -35 -51.5t-22 -104.5q-4 -53 1 -89.5t15.5 -60t24 -36t27.5 -18.5q10 -7 24 -7h2z" />
    <glyph glyph-name="R" unicode="R" horiz-adv-x="569" 
d="M429 -35l-172 354q-10 -1 -19.5 -1.5t-19.5 -0.5l-5 -311l-203 -11l19 763q51 2 103 2q45 0 97.5 -1t100.5 -3q47 -2 82 -21.5t59 -47t37 -59t16 -56.5q2 -17 1 -42t-9 -53.5t-27 -57t-53 -51.5l170 -321zM214 487q68 -8 99.5 5t39.5 32.5t-1.5 38.5t-23.5 24t-33 7
t-36 3q-20 1 -42 0z" />
    <glyph glyph-name="S" unicode="S" horiz-adv-x="524" 
d="M353 552q-29 29 -64 41.5t-65 10.5t-50.5 -17t-19.5 -41q0 -11 7 -20.5t18 -18t25 -15t29 -12.5q34 -13 78 -23q78 -25 125.5 -66t69.5 -88t20 -96t-23.5 -91.5t-60 -74t-89.5 -43.5q-59 -14 -105.5 -11t-82.5 17.5t-63 36.5t-46 48q-45 60 -63 144l159 44
q4 -19 19 -42.5t36.5 -41.5t48.5 -25.5t56 6.5q28 13 29 33.5t-13.5 40.5t-38.5 36.5t-46 22.5t-54 16.5t-65.5 29t-63.5 46.5t-47 70t-14 92t28 94.5t74 75.5t126 34q38 2 69 -3.5t55.5 -15t44 -22.5t33.5 -27q33 -33 51 -76z" />
    <glyph glyph-name="T" unicode="T" horiz-adv-x="519" 
d="M-45 773l569 -8l-5 -185h-179l-7 -590l-185 -7l12 599l-196 -2l-9 193v0z" />
    <glyph glyph-name="copyright" unicode="&#xa9;" horiz-adv-x="833" 
 />
    <glyph glyph-name="U" unicode="U" horiz-adv-x="559" 
d="M40 761l197 -5q-7 -100 -12 -189l-4 -77t-3.5 -74.5t-2.5 -65.5t-1 -49q0 -50 20.5 -74t46 -28t48.5 10.5t28 41.5q4 23 5.5 56.5t2 72.5t-0.5 81.5l-2 83.5q-4 96 -10 202l185 8q9 -134 13 -255l2 -104.5t-0.5 -102.5t-5 -90.5t-9.5 -68.5q-8 -33 -24.5 -57t-38 -40.5
t-46 -26.5t-49.5 -15q-58 -12 -128 -7q-69 3 -123 33q-23 12 -44.5 31.5t-38 48t-26.5 67.5t-8 90z" />
    <glyph glyph-name="V" unicode="V" horiz-adv-x="553" 
d="M-8 768l207 -8l65 -494l94 494l203 -7l-193 -762l-215 -10l-161 787v0z" />
    <glyph glyph-name="W" unicode="W" horiz-adv-x="670" 
d="M-17 754l184 12l18 -383l80 305l137 -5l68 -326l25 406l171 -11l-89 -754l-213 -15l-43 337l-65 -327l-190 10l-83 751v0z" />
    <glyph glyph-name="X" unicode="X" horiz-adv-x="609" 
d="M447 -34q-15 29 -37 68l-47.5 81l-66.5 110l-168 -257l-168 104l217 303l-89 133l-105 156l166 104l154 -234l177 235l136 -86l-207 -301l199 -292z" />
    <glyph glyph-name="Y" unicode="Y" horiz-adv-x="461" 
d="M-119 655l161 107l142 -193l152 216l133 -94l-190 -278l11 -416l-193 -13l-1 419l-215 252v0z" />
    <glyph glyph-name="Z" unicode="Z" horiz-adv-x="559" 
d="M38 760l477 -8l9 -180l-336 -384l368 18l-10 -192l-521 -34l-16 262l286 329l-280 2l23 187v0z" />
    <glyph glyph-name="D" unicode="D" horiz-adv-x="552" 
d="M18 754q114 17 214.5 2t172.5 -67.5t108.5 -145.5t23.5 -231q-8 -75 -33 -129.5t-61.5 -92t-80.5 -60t-89 -34.5q-106 -29 -234 -15zM231 196q36 8 64 29q24 18 44 52t20 93q0 45 -12 81t-33 60.5t-48.5 37.5t-58.5 13z" />
    <glyph glyph-name="zero" unicode="0" horiz-adv-x="551" 
d="M12 287q-13 82 -7 149.5t24.5 121t46.5 93t59 66t61.5 39.5t54.5 13h17q31 0 64 -11q37 -11 75.5 -35.5t68.5 -72t47.5 -121t13.5 -181.5q-3 -71 -15.5 -124t-31.5 -92t-41.5 -65.5t-46.5 -42.5q-55 -40 -123 -42h-11q-66 0 -122 44t-91 119q-11 22 -18 42.5t-11.5 35.5
t-6.5 24.5l-2 9.5q-2 8 -3 15t-2 15zM175 390q-2 -53 4.5 -88.5t18 -58.5t26 -35t28.5 -17q12 -6 24 -6q4 0 7 1q13 0 31.5 14t34.5 42.5t24 72.5t1 104v6.5t-1 6.5q-1 8 -3 17l-4.5 17.5t-6.5 20.5q-14 36 -35 58t-46 22h-4q-26 -2 -47 -20q-18 -17 -34 -53t-18 -104z" />
    <glyph glyph-name="one" unicode="1" horiz-adv-x="384" 
d="M-9 668l144 106l180 -11l-5 -774l-191 -11l1 579l-72 -20l-57 131v0z" />
    <glyph glyph-name="two" unicode="2" horiz-adv-x="490" 
d="M10 581q16 51 43 91q12 17 27 34t34.5 30.5t43.5 23t53 12.5q38 3 80 -8t77.5 -34.5t60.5 -60t29.5 -84.5t-16 -107.5t-74.5 -128.5l-155 -177l275 6l-21 -175l-454 -13l-9 188l191 227q38 39 60 73q9 15 16 30t8.5 29.5t-3.5 27t-20 21.5q-17 10 -32 4.5t-28 -19.5
t-24.5 -33l-21.5 -36z" />
    <glyph glyph-name="three" unicode="3" horiz-adv-x="527" 
d="M418 402q58 -46 82.5 -96.5t22.5 -98.5t-26 -90.5t-63 -73t-89 -46t-102 -9.5q-35 4 -64 14t-53.5 23.5t-44 30t-34.5 32.5q-35 38 -57 84l161 91q13 -17 30.5 -36t36.5 -32.5t39.5 -18t40.5 7.5q19 12 25 29.5t2 35.5t-17 34.5t-32 26.5q-17 11 -35.5 14.5t-34.5 3.5
q-18 0 -37 -3l-13 135q41 -4 69 4.5t45 19.5q20 13 33 32q11 23 10.5 38.5t-24.5 29.5q-19 10 -37 4.5t-34.5 -19t-30.5 -32t-25 -34.5l-136 108q19 37 48 69q25 27 64 52t94 33q42 6 85.5 -3t80 -32t62 -56.5t32.5 -76t-9.5 -92.5t-64.5 -103z" />
    <glyph glyph-name="four" unicode="4" 
d="M573 273l-125 -21l-3 -265h-189l6 238l-226 -30l-30 203l272 363l143 9v0l38 2v-355l96 8zM240 405l50 7v109l-87 -120z" />
    <glyph glyph-name="five" unicode="5" horiz-adv-x="495" 
d="M460 572l-250 9l-10 -76q29 0 62 -5q28 -5 62 -15t69 -29q23 -12 43.5 -39t34.5 -62.5t18 -77.5t-5 -85t-34 -84.5t-70 -75.5q-34 -26 -69.5 -37t-71.5 -11.5t-70 7.5t-65 20q-72 28 -141 82l93 188q13 -19 38 -34.5t55 -26.5t61.5 -15t55.5 0t38 18.5t10 40.5
q-3 19 -17.5 33t-36 23.5t-47.5 14.5t-53 8q-63 6 -141 0l41 419l417 -14z" />
    <glyph glyph-name="six" unicode="6" horiz-adv-x="522" 
d="M427 428q36 -25 56 -53.5t28.5 -57.5t8.5 -56.5t-5 -51t-12 -42t-12 -27.5q-21 -40 -47 -70t-53 -49.5t-52.5 -29.5t-46.5 -10h-17q-31 0 -64 11q-38 11 -76 35.5t-68 72t-47.5 121t-13.5 181.5q3 70 15.5 123.5t31 92.5t41.5 65t47 43q55 39 123 42h11q64 0 118.5 -41
t89.5 -112l-138 -81q-11 15 -22 23t-22 12q-12 6 -24 6q-4 0 -7 -1q-11 0 -25 -8.5t-27.5 -26t-24.5 -44t-15 -62.5q9 7 31.5 19t55.5 17.5t74 -1.5t88 -40zM362 244q5 29 -6 48t-30 29t-42.5 11t-43 -7t-32 -25t-9.5 -42q5 -38 32 -63t53 -32q10 -2 22 1t23 12t19.5 25.5
t13.5 42.5z" />
    <glyph glyph-name="nine" unicode="9" horiz-adv-x="490" 
d="M74 328q-33 27 -51 56.5t-25 58.5t-5.5 56.5t7.5 51t14 41t14 26.5q22 38 49.5 66t55 46t53 26.5t45.5 7.5l17 -1q17 -1 32 -5t30 -10q36 -13 71.5 -39.5t62.5 -75t40 -122.5t3 -181q-7 -70 -22.5 -122t-36 -89.5t-44 -62.5t-47.5 -40q-56 -36 -122 -34h-11
q-63 4 -113.5 47.5t-81.5 116.5l139 72q10 -15 20 -23.5t21 -13.5q11 -6 24 -7q4 0 7 1q10 -1 24 6.5t28 24t26.5 42t18.5 61.5q-9 -6 -32 -17t-55 -15t-72.5 6t-83.5 45zM276 440q27 13 36.5 34t6.5 43t-17 42t-33 31.5t-40.5 11t-41.5 -18.5q-14 -14 -21.5 -31t-10 -34.5
t-0.5 -34.5t7 -29q5 -10 14.5 -18t24 -11.5t33 -0.5t42.5 16z" />
    <glyph glyph-name="seven" unicode="7" horiz-adv-x="485" 
d="M12 737l446 11l12 -213q-54 -107 -100 -207q-20 -43 -39 -88.5t-35.5 -89.5t-28.5 -84.5t-17 -72.5l-185 11q16 79 45 171q25 78 66.5 178.5t106.5 210.5l-284 -6z" />
    <glyph glyph-name="eight" unicode="8" horiz-adv-x="511" 
d="M506 216q3 -22 -7.5 -57t-36.5 -70.5t-69.5 -65t-106.5 -38.5q-62 -10 -107.5 5t-74.5 37q-34 26 -57 61q-22 31 -32.5 68t-6 76.5t26 80.5t63.5 79q-43 50 -59.5 97t-13 88t23.5 74.5t50 57.5q25 20 55 32.5t61 14.5q28 5 58 3t63 -13q15 -5 29 -11.5t28 -16.5
q33 -22 56 -54.5t28 -74t-10.5 -89t-58.5 -99.5q53 -44 75.5 -91.5t22.5 -93.5zM289 602q-19 9 -38 7t-33.5 -11t-22.5 -21.5t-5 -23.5q2 -5 4 -11l4 -12q4 -7 11 -14q6 -6 15 -13.5t23 -12.5q14 6 25 13.5t18 14.5q8 8 13 16q9 23 9 39.5t-23 28.5zM306 171q32 19 30 50v1
q-2 22 -15.5 42.5t-34.5 33.5q-8 6 -16.5 10t-15.5 6q-5 -2 -10.5 -4.5t-10.5 -5.5q-16 -9 -28 -23t-18 -29.5t-5 -32t10 -29.5q16 -27 49.5 -31.5t64.5 12.5z" />
    <glyph glyph-name="breve" unicode="&#x2d8;" horiz-adv-x="429" 
d="M34 726l122 30q2 -11 9 -20q6 -8 18.5 -13.5t35.5 -5.5t37 8t22 18q10 11 14 27l106 -27q-8 -37 -29 -66q-18 -25 -53 -45.5t-93 -20.5t-94.5 17.5t-57.5 39.5q-25 26 -37 58z" />
    <glyph glyph-name="ring" unicode="&#x2da;" horiz-adv-x="339" 
d="M168 783q31 0 53 -22t22 -54t-22 -54t-53 -22t-53 22t-22 54t22 54t53 22zM169 673q14 0 24 10.5t10 24.5q0 15 -10 25.5t-24 10.5t-23.5 -10.5t-9.5 -25.5q0 -14 9.5 -24.5t23.5 -10.5z" />
    <glyph glyph-name="dotaccent" unicode="&#x2d9;" horiz-adv-x="297" 
d="M141 681q-14 0 -24 10.5t-10 25.5q0 14 10 24.5t24 10.5t24 -10.5t10 -24.5q0 -15 -10 -25.5t-24 -10.5z" />
    <glyph glyph-name="hungarumlaut" unicode="&#x2dd;" horiz-adv-x="384" 
d="M196 771v-20l-105 -91l-17 19l42 94q10 6 22 9q11 2 25.5 1t32.5 -10v-2zM242 784q11 5 23 5q11 0 24.5 -5t29.5 -20l-3 -26l-116 -82l-13 27z" />
    <glyph glyph-name="ogonek" unicode="&#x2db;" horiz-adv-x="294" 
d="M139 125q-11 -35 -2.5 -54.5t22.5 -28.5q17 -11 42 -13l26 -26q-11 -11 -24 -14.5t-24 -3.5q-13 0 -26 4q-23 6 -38 16t-24 22.5t-13 26t-5 26.5q-2 31 10 67l56 -22v0z" />
    <glyph glyph-name="Zcaron" unicode="&#x17d;" horiz-adv-x="559" 
d="M38 659l477 -7l9 -163l-336 -326l368 16l-10 -173l-521 -31l-16 236l286 277l-280 2zM118 814l155 -73l172 74l35 -37l-213 -99l-193 94z" />
    <glyph glyph-name="caron" unicode="&#x2c7;" horiz-adv-x="490" 
d="M88 874l155 -81l172 82l35 -41l-213 -110l-193 105z" />
    <glyph glyph-name="zcaron" unicode="&#x17e;" horiz-adv-x="495" 
d="M35 417l427 -4l8 -101l-301 -215l329 10l-9 -108l-466 -19l-14 147l256 184l-251 2zM111 566l129 -72l143 74l29 -37l-177 -98l-160 93z" />
    <glyph glyph-name="dotlessi" unicode="&#x131;" horiz-adv-x="334" 
d="M41 304l9.5 1t25 3.5t35 5t40.5 5.5q48 6 109 15l7 -577q-32 3 -57 6q-21 2 -38.5 4.5t-17.5 4.5l-1 17.5l-2.5 46t-4 64.5t-4.5 74l-11 199l-40 2q-15 1 -27 1.5t-12 1.5t-2 20.5t-4 43t-3.5 43z" />
    <glyph glyph-name="slash" unicode="/" horiz-adv-x="760" 
d="M-28 -3l27.5 35l72.5 93.5l103 133l119 152.5l323 416l173 -131l-648 -833l-84 68l-31 25l-27 21t-20 14.5z" />
    <glyph glyph-name="fraction" unicode="&#x2044;" horiz-adv-x="164" 
d="M-258 46l23.5 30l62 80.5l88.5 114.5l102 131l278 357l148 -112l-556 -716l-73 58l-27 21.5l-23 18.5t-16.5 12.5z" />
    <glyph glyph-name="period" unicode="." horiz-adv-x="236" 
d="M68 -12q-19 4 -34 17t-24 31.5t-11.5 40.5t2.5 46q4 22 15.5 40t27 29.5t34 16t37.5 0.5q19 -5 34 -17.5t24 -30.5t12 -39.5t-2 -43.5q-5 -24 -16.5 -42.5t-27 -31t-34 -17t-37.5 0.5z" />
    <glyph glyph-name="exclam" unicode="!" horiz-adv-x="339" 
d="M93 -27q-21 4 -37.5 16.5t-26.5 30.5t-13.5 39.5t2.5 44.5q5 21 18 38.5t30.5 29t38.5 16.5t42 1q21 -5 37.5 -17.5t26.5 -30t13.5 -38.5t-2.5 -42q-5 -23 -18 -41.5t-30.5 -30.5t-38.5 -16.5t-42 0.5zM59 248q1 -1 2.5 22.5t3 62.5l3.5 88.5l4 102.5l9 280l218 -16
l-97 -549q-41 3 -73 6q-14 1 -26.5 2t-22.5 1.5t-16 0.5t-5 -1z" />
    <glyph glyph-name="colon" unicode=":" horiz-adv-x="240" 
d="M105 96q-20 4 -35.5 16t-25.5 29.5t-14 39.5t0 46q3 22 13 41t25 31.5t33.5 18t37.5 1.5t34.5 -15.5t26 -28.5t14.5 -38.5t1 -43.5q-4 -24 -14.5 -43.5t-25.5 -32.5t-33 -19t-37 -2zM87 398q-20 3 -35.5 15t-25.5 29.5t-14 39.5t0 46q3 22 13 41t25 31.5t33.5 18.5
t37.5 3q19 -4 35 -16t26 -29.5t14 -39t1 -43.5q-3 -24 -13.5 -43.5t-25.5 -32.5t-33.5 -18.5t-37.5 -1.5z" />
    <glyph glyph-name="semicolon" unicode=";" horiz-adv-x="250" 
d="M89 428q-20 3 -35.5 14t-26.5 28.5t-15.5 39.5t-1.5 46q3 22 12.5 41t24 32.5t32.5 19.5t37 3t35 -14.5t27 -28t16 -38t2 -43.5q-3 -24 -13 -44t-24.5 -33.5t-32.5 -19.5t-37 -3zM143 351q19 -3 35.5 -14.5t27 -28t15.5 -38t2 -43.5q-1 -4 -1 -7t-2 -7v-1v-1
q-1 -4 -3 -14q-5 -12 -14 -31.5t-24.5 -40.5t-39.5 -41.5t-57 -35.5l-26 22q8 6 16 16q7 8 13 19.5t10 27.5q-30 14 -46.5 47.5t-10.5 75.5q2 22 12 41t24 32t32 19t37 3z" />
    <glyph glyph-name="less" unicode="&#x3c;" horiz-adv-x="416" 
d="M23 281l-10 142l308 194l70 -132l-210 -122l194 -118l-68 -128l-284 164v0z" />
    <glyph glyph-name="greater" unicode="&#x3e;" horiz-adv-x="382" 
d="M89 129l-65 124l184 115l-199 119l66 128l293 -188l-9 -139z" />
    <glyph glyph-name="equal" unicode="=" horiz-adv-x="450" 
d="M436 394l-414 -20l-12 130l405 10zM22 174l11 140h385v-130z" />
    <glyph glyph-name="hyphen" unicode="-" horiz-adv-x="459" 
d="M33 271l11 144h375v-134l-386 -10v0z" />
    <glyph glyph-name="A" unicode="A" horiz-adv-x="553" 
d="M382 764l220 -767l-212 -12l-50 228l-143 -28l-40 -202l-197 2l189 758zM231 362l73 12l-35 173z" />
    <glyph glyph-name="B" unicode="B" horiz-adv-x="536" 
d="M354 418q64 -14 102.5 -46t55.5 -73t14 -86.5t-21.5 -85.5t-52 -70t-77.5 -40q-66 -17 -128 -24t-110 -9q-56 -3 -107 -1l-26 766q70 9 142 10.5t132 -11t102 -42t53 -82.5t-0.5 -91t-28.5 -64q-20 -30 -50 -51zM186 498q22 8 40 19q15 9 27.5 20t13.5 25
q0 13 -10.5 21.5t-24.5 13t-28.5 5t-21.5 -2.5zM207 157q36 1 65 9q25 7 45.5 20.5t20.5 38.5q0 14 -14.5 24.5t-35.5 16.5t-45 6t-43 -7z" />
    <glyph glyph-name="C" unicode="C" horiz-adv-x="516" 
d="M360 538q-29 39 -54.5 44t-46.5 -8.5t-37 -38.5t-25 -46q-6 -14 -12 -39t-9 -55t-3 -62.5t6 -61.5t18 -52t33 -33q28 -14 53 -7.5t44 20.5q22 16 41 42l141 -90q-9 -24 -30.5 -52.5t-55.5 -53t-79 -41t-100 -16.5q-64 0 -108.5 29t-73 76t-43 107.5t-18.5 122.5t7 133.5
t40 135.5t78 112t120 62q36 7 66 5t55.5 -10t45.5 -21t36 -27q37 -33 60 -81z" />
    <glyph glyph-name="a" unicode="a" horiz-adv-x="553" 
d="M382 764l220 -767l-212 -12l-50 228l-143 -28l-40 -202l-197 2l189 758zM231 362l73 12l-35 173z" />
    <glyph glyph-name="b" unicode="b" horiz-adv-x="536" 
d="M354 418q64 -14 102.5 -46t55.5 -73t14 -86.5t-21.5 -85.5t-52 -70t-77.5 -40q-66 -17 -128 -24t-110 -9q-56 -3 -107 -1l-26 766q70 9 142 10.5t132 -11t102 -42t53 -82.5t-0.5 -91t-28.5 -64q-20 -30 -50 -51zM186 498q22 8 40 19q15 9 27.5 20t13.5 25
q0 13 -10.5 21.5t-24.5 13t-28.5 5t-21.5 -2.5zM207 157q36 1 65 9q25 7 45.5 20.5t20.5 38.5q0 14 -14.5 24.5t-35.5 16.5t-45 6t-43 -7z" />
    <glyph glyph-name="c" unicode="c" horiz-adv-x="516" 
d="M360 538q-29 39 -54.5 44t-46.5 -8.5t-37 -38.5t-25 -46q-6 -14 -12 -39t-9 -55t-3 -62.5t6 -61.5t18 -52t33 -33q28 -14 53 -7.5t44 20.5q22 16 41 42l141 -90q-9 -24 -30.5 -52.5t-55.5 -53t-79 -41t-100 -16.5q-64 0 -108.5 29t-73 76t-43 107.5t-18.5 122.5t7 133.5
t40 135.5t78 112t120 62q36 7 66 5t55.5 -10t45.5 -21t36 -27q37 -33 60 -81z" />
    <glyph glyph-name="d" unicode="d" horiz-adv-x="552" 
d="M18 754q114 17 214.5 2t172.5 -67.5t108.5 -145.5t23.5 -231q-8 -75 -33 -129.5t-61.5 -92t-80.5 -60t-89 -34.5q-106 -29 -234 -15zM231 196q36 8 64 29q24 18 44 52t20 93q0 45 -12 81t-33 60.5t-48.5 37.5t-58.5 13z" />
    <glyph glyph-name="e" unicode="e" horiz-adv-x="524" 
d="M18 751l461 17v-180l-262 -20l12 -86l182 8l11 -184l-177 -13l6 -99l258 4l2 -196l-478 -9z" />
    <glyph glyph-name="f" unicode="f" horiz-adv-x="496" 
d="M259 -3l-225 -6l-16 770l464 10l4 -176l-259 -18l4 -94l188 10l12 -184l-188 -13z" />
    <glyph glyph-name="g" unicode="g" horiz-adv-x="552" 
d="M322 556q-17 24 -35 28.5t-35 -4t-31 -26.5t-22 -39q-6 -17 -11.5 -54.5t-5.5 -82t8 -87.5t29 -71q19 -25 36.5 -35t33.5 -9t29 10t22 21t13.5 25t3.5 23l-82 4l6 166h251q6 -36 8.5 -77.5t-0.5 -84t-13.5 -83.5t-30.5 -76.5t-52 -63t-78 -42.5q-64 -21 -123.5 -10
t-107.5 49t-81 101t-43 144q-11 82 -4 158t32.5 139t69.5 110t107 71q40 15 74.5 16t62.5 -7.5t50.5 -23.5t40.5 -33q40 -42 66 -106z" />
    <glyph glyph-name="h" unicode="h" horiz-adv-x="564" 
d="M12 751l209 16l-3 -303l126 5l-3 279l208 13l-8 -755l-187 -10l-2 301l-138 -10l4 -294l-195 -4z" />
    <glyph glyph-name="i" unicode="i" horiz-adv-x="270" 
d="M41 759l198 6l-9 -772l-177 3z" />
    <glyph glyph-name="j" unicode="j" horiz-adv-x="508" 
d="M315 769l172 -11l6 -444q1 -97 -25 -171q-11 -32 -29.5 -61t-47 -50.5t-68 -31.5t-92.5 -4q-51 6 -87.5 24t-61.5 43.5t-40 55.5t-22 61q-18 72 -7 161l174 -16q-4 -40 1 -71q2 -13 6.5 -25.5t12 -22.5t18.5 -16t27 -6q22 -3 38 16q13 16 23.5 58t6.5 126z" />
    <glyph glyph-name="k" unicode="k" horiz-adv-x="568" 
d="M26 776l179 -15l-9 -234l201 271l150 -103l-182 -243l202 -399l-172 -60l-156 327l-34 -42l-6 -293l-185 -7z" />
    <glyph glyph-name="l" unicode="l" horiz-adv-x="479" 
d="M18 764l206 -10l15 -553l237 6l-2 -208l-432 -8z" />
    <glyph glyph-name="m" unicode="m" horiz-adv-x="679" 
d="M10 0l62 773l199 -21l63 -324l69 329l182 10l91 -762l-195 -22l-19 375l-57 -231l-132 -15l-65 245l-9 -357h-189z" />
    <glyph glyph-name="n" unicode="n" 
d="M46 -19l-40 767l224 19l150 -428l-17 424l175 1l24 -756l-217 -22l-144 385l26 -388z" />
    <glyph glyph-name="o" unicode="o" horiz-adv-x="543" 
d="M522 465q13 -82 7 -149.5t-24.5 -121t-46.5 -93t-59 -66t-61.5 -39.5t-54.5 -13h-17q-31 0 -64 11q-38 11 -76 35.5t-68 72t-47.5 121t-13.5 181.5q3 70 15.5 123.5t31 92.5t41.5 65t47 43q55 39 123 42h11q66 0 122 -44t91 -119q11 -23 18 -43t11.5 -35t6.5 -24.5
l2 -9.5q2 -8 3 -15t2 -15zM369 372q2 52 -4.5 88t-18 59t-26 35t-28.5 17q-12 6 -24 6q-4 0 -7 -1q-13 0 -31.5 -14t-34.5 -42.5t-24.5 -72.5t-0.5 -104v-6.5t1 -6.5q1 -8 3 -17q2 -8 4 -17.5t7 -20.5q14 -36 35 -58t46 -22h4q26 1 47 20q18 16 33.5 52t18.5 105z" />
    <glyph glyph-name="p" unicode="p" horiz-adv-x="519" 
d="M514 589q3 -17 3.5 -42.5t-6.5 -54t-24.5 -57.5t-51 -53t-86.5 -41t-130 -20l10 -325l-203 -6l-15 763l103 6q45 2 97.5 3.5t100.5 1.5q47 0 83 -18t61 -44.5t39.5 -57t18.5 -55.5zM205 486q70 0 103.5 15.5t42 35t-0.5 37.5t-24 21q-14 4 -36.5 4t-42.5 -2
q-25 -2 -50 -5z" />
    <glyph glyph-name="q" unicode="q" 
d="M443 -32l-47 56q-26 -21 -50.5 -31t-44.5 -15q-23 -5 -43 -4l-11 1q-64 2 -116.5 48.5t-83.5 122.5q-20 47 -26.5 80t-6.5 34q-2 8 -3 15.5t-1 15.5q-10 82 -1 149.5t29 120.5t48.5 92t59.5 64t61 37t53 11l17 -1q32 -1 62 -13q36 -12 72 -38.5t63.5 -75.5t42 -123.5
t6.5 -182.5q-7 -89 -29 -151l80 -86zM269 179l-56 68l123 104l33 -35q8 41 3 95v12q0 8 -2 18q-3 16 -9 39q-13 37 -33.5 60t-43.5 24h-5q-26 0 -47 -18q-18 -16 -35 -51.5t-22 -104.5q-4 -53 1 -89.5t15.5 -60t24 -36t27.5 -18.5q10 -7 24 -7h2z" />
    <glyph glyph-name="r" unicode="r" horiz-adv-x="569" 
d="M429 -35l-172 354q-10 -1 -19.5 -1.5t-19.5 -0.5l-5 -311l-203 -11l19 763q51 2 103 2q45 0 97.5 -1t100.5 -3q47 -2 82 -21.5t59 -47t37 -59t16 -56.5q2 -17 1 -42t-9 -53.5t-27 -57t-53 -51.5l170 -321zM214 487q68 -8 99.5 5t39.5 32.5t-1.5 38.5t-23.5 24t-33 7
t-36 3q-20 1 -42 0z" />
    <glyph glyph-name="s" unicode="s" horiz-adv-x="524" 
d="M353 552q-29 29 -64 41.5t-65 10.5t-50.5 -17t-19.5 -41q0 -11 7 -20.5t18 -18t25 -15t29 -12.5q34 -13 78 -23q78 -25 125.5 -66t69.5 -88t20 -96t-23.5 -91.5t-60 -74t-89.5 -43.5q-59 -14 -105.5 -11t-82.5 17.5t-63 36.5t-46 48q-45 60 -63 144l159 44
q4 -19 19 -42.5t36.5 -41.5t48.5 -25.5t56 6.5q28 13 29 33.5t-13.5 40.5t-38.5 36.5t-46 22.5t-54 16.5t-65.5 29t-63.5 46.5t-47 70t-14 92t28 94.5t74 75.5t126 34q38 2 69 -3.5t55.5 -15t44 -22.5t33.5 -27q33 -33 51 -76z" />
    <glyph glyph-name="t" unicode="t" horiz-adv-x="519" 
d="M-45 773l569 -8l-5 -185h-179l-7 -590l-185 -7l12 599l-196 -2z" />
    <glyph glyph-name="u" unicode="u" horiz-adv-x="559" 
d="M40 761l197 -5q-7 -100 -12 -189l-4 -77t-3.5 -74.5t-2.5 -65.5t-1 -49q0 -50 20.5 -74t46 -28t48.5 10.5t28 41.5q4 23 5.5 56.5t2 72.5t-0.5 81.5l-2 83.5q-4 96 -10 202l185 8q9 -134 13 -255l2 -104.5t-0.5 -102.5t-5 -90.5t-9.5 -68.5q-8 -33 -24.5 -57t-38 -40.5
t-46 -26.5t-49.5 -15q-58 -12 -128 -7q-69 3 -123 33q-23 12 -44.5 31.5t-38 48t-26.5 67.5t-8 90z" />
    <glyph glyph-name="v" unicode="v" horiz-adv-x="553" 
d="M-8 768l207 -8l65 -494l94 494l203 -7l-193 -762l-215 -10z" />
    <glyph glyph-name="w" unicode="w" horiz-adv-x="670" 
d="M-17 754l184 12l18 -383l80 305l137 -5l68 -326l25 406l171 -11l-89 -754l-213 -15l-43 337l-65 -327l-190 10z" />
    <glyph glyph-name="x" unicode="x" horiz-adv-x="609" 
d="M447 -34q-15 29 -37 68l-47.5 81l-66.5 110l-168 -257l-168 104l217 303l-89 133l-105 156l166 104l154 -234l177 235l136 -86l-207 -301l199 -292z" />
    <glyph glyph-name="y" unicode="y" horiz-adv-x="461" 
d="M-119 655l161 107l142 -193l152 216l133 -94l-190 -278l11 -416l-193 -13l-1 419z" />
    <glyph glyph-name="z" unicode="z" horiz-adv-x="559" 
d="M38 760l477 -8l9 -180l-336 -384l368 18l-10 -192l-521 -34l-16 262l286 329l-280 2z" />
  </font>
</defs>
</svg>
